<svg width="64" height="64" viewBox="0 0 64 64" fill="none" xmlns="http://www.w3.org/2000/svg">
<circle cx="32" cy="32" r="32" fill="#262626"/>
<path d="M21.3333 38.4002C21.3333 36.7575 21.3333 35.9362 21.7034 35.3324C21.9103 34.9943 22.1941 34.7106 22.5322 34.5036C23.1349 34.1335 23.9573 34.1335 25.5999 34.1335C27.2426 34.1335 28.0639 34.1335 28.6677 34.5036C29.0058 34.7106 29.2895 34.9943 29.4965 35.3324C29.8666 35.9351 29.8666 36.7575 29.8666 38.4002C29.8666 40.0428 29.8666 40.8642 29.4965 41.469C29.2895 41.806 29.0058 42.0898 28.6677 42.2967C28.065 42.6668 27.2426 42.6668 25.5999 42.6668C23.9573 42.6668 23.1359 42.6668 22.5322 42.2967C22.1944 42.0901 21.9104 41.8065 21.7034 41.469C21.3333 40.8642 21.3333 40.0428 21.3333 38.4002ZM34.1332 38.4002C34.1332 36.7575 34.1332 35.9362 34.5034 35.3324C34.7103 34.9943 34.994 34.7106 35.3322 34.5036C35.9348 34.1335 36.7572 34.1335 38.3999 34.1335C40.0426 34.1335 40.8639 34.1335 41.4687 34.5036C41.8058 34.7106 42.0895 34.9943 42.2964 35.3324C42.6666 35.9351 42.6666 36.7575 42.6666 38.4002C42.6666 40.0428 42.6666 40.8642 42.2964 41.469C42.0894 41.8061 41.8058 42.0897 41.4687 42.2967C40.8639 42.6668 40.0426 42.6668 38.3999 42.6668C36.7572 42.6668 35.9359 42.6668 35.3322 42.2967C34.9944 42.0901 34.7104 41.8065 34.5034 41.469C34.1332 40.8642 34.1332 40.0428 34.1332 38.4002ZM21.3333 25.6002C21.3333 23.9575 21.3333 23.1362 21.7034 22.5324C21.9103 22.1943 22.1941 21.9106 22.5322 21.7036C23.1349 21.3335 23.9573 21.3335 25.5999 21.3335C27.2426 21.3335 28.0639 21.3335 28.6677 21.7036C29.0058 21.9106 29.2895 22.1943 29.4965 22.5324C29.8666 23.1351 29.8666 23.9575 29.8666 25.6002C29.8666 27.2428 29.8666 28.0642 29.4965 28.6679C29.2895 29.006 29.0058 29.2898 28.6677 29.4967C28.065 29.8668 27.2426 29.8668 25.5999 29.8668C23.9573 29.8668 23.1359 29.8668 22.5322 29.4967C22.1943 29.2898 21.9103 29.0058 21.7034 28.6679C21.3333 28.0652 21.3333 27.2428 21.3333 25.6002ZM34.1332 25.6002C34.1332 23.9575 34.1332 23.1362 34.5034 22.5324C34.7103 22.1943 34.994 21.9106 35.3322 21.7036C35.9348 21.3335 36.7572 21.3335 38.3999 21.3335C40.0426 21.3335 40.8639 21.3335 41.4687 21.7036C41.8058 21.9106 42.0895 22.1943 42.2964 22.5324C42.6666 23.1351 42.6666 23.9575 42.6666 25.6002C42.6666 27.2428 42.6666 28.0642 42.2964 28.6679C42.0895 29.006 41.8058 29.2898 41.4687 29.4967C40.8639 29.8668 40.0426 29.8668 38.3999 29.8668C36.7572 29.8668 35.9359 29.8668 35.3322 29.4967C34.9943 29.2898 34.7103 29.0058 34.5034 28.6679C34.1332 28.0652 34.1332 27.2428 34.1332 25.6002Z" stroke="white" stroke-width="1.5"/>
</svg>
