<svg width="52" height="48" viewBox="0 0 52 48" fill="none" xmlns="http://www.w3.org/2000/svg">
<g clip-path="url(#clip0_807_802)">
<path d="M3.93128 40.5616L6.22456 44.5226C6.70109 45.3566 7.38603 46.0119 8.1902 46.4884C10.4935 43.5646 12.0968 41.321 13.0002 39.7575C13.917 38.1708 15.0437 35.689 16.3804 32.3119C12.7778 31.8377 10.0478 31.6006 8.19041 31.6006C6.40765 31.6006 3.67751 31.8377 0 32.3119C0 33.2351 0.238266 34.1583 0.714797 34.9924L3.93128 40.5616Z" fill="#0066DA"/>
<path d="M43.8102 46.4884C44.6146 46.0119 45.2996 45.3566 45.7759 44.5228L46.7289 42.8848L51.2859 34.9924C51.7535 34.1764 51.9999 33.2524 52.0005 32.3119C48.3015 31.8377 45.5765 31.6006 43.8253 31.6006C41.9431 31.6006 39.218 31.8377 35.6499 32.3119C36.9708 35.7075 38.0827 38.1894 38.9856 39.7575C39.8962 41.3395 41.5044 43.5832 43.8102 46.4884Z" fill="#EA4335"/>
<path d="M26.0003 15.6335C28.6653 12.4149 30.5019 9.93305 31.51 8.18794C32.322 6.78272 33.2155 4.53907 34.1905 1.45698C33.3863 0.980453 32.4631 0.742188 31.51 0.742188H20.4905C19.5374 0.742188 18.6144 1.01031 17.8101 1.45698C19.0505 4.99177 20.1029 7.5074 20.9674 9.00389C21.9229 10.6577 23.6005 12.8676 26.0003 15.6335Z" fill="#00832D"/>
<path d="M35.62 32.312H16.3804L8.19043 46.4885C8.9944 46.965 9.9176 47.2033 10.8707 47.2033H41.1298C42.0828 47.2033 43.0063 46.9352 43.8102 46.4883L35.62 32.312Z" fill="#2684FC"/>
<path d="M26.0002 15.6333L17.8102 1.45703C17.0058 1.93356 16.3209 2.58864 15.8444 3.42267L0.714797 29.6313C0.247052 30.4472 0.000646243 31.3712 0 32.3117H16.3804L26.0002 15.6333Z" fill="#00AC47"/>
<path d="M43.7211 16.5271L36.1561 3.42267C35.6798 2.58864 34.9947 1.93356 34.1905 1.45703L26.0005 15.6335L35.6201 32.3119H51.9708C51.9708 31.3885 51.7326 30.4655 51.256 29.6315L43.7211 16.5271Z" fill="#FFBA00"/>
</g>
<defs>
<clipPath id="clip0_807_802">
<rect width="52" height="46.5156" fill="white" transform="translate(0 0.742188)"/>
</clipPath>
</defs>
</svg>
