<svg width="52" height="52" viewBox="0 0 52 52" fill="none" xmlns="http://www.w3.org/2000/svg">
<path d="M19.9116 30.2683V14.6683L32.0341 7.66994C38.7508 3.79161 50.7758 13.3574 45.7275 22.1108" stroke="black" stroke-width="0.5" stroke-linejoin="round"/>
<path d="M19.9116 22.6848L33.4208 14.8848L45.5433 21.8831C52.26 25.7614 49.985 40.9606 39.8775 40.9606" stroke="black" stroke-width="0.5" stroke-linejoin="round"/>
<path d="M26.4766 18.8936L39.9858 26.6936V40.7011C39.9858 48.4577 25.6858 54.0911 20.6375 45.3377" stroke="black" stroke-width="0.5" stroke-linejoin="round"/>
<path d="M33.0416 22.9668V38.2851L20.9191 45.2835C14.2025 49.1618 2.17745 39.596 7.22578 30.8426" stroke="black" stroke-width="0.5" stroke-linejoin="round"/>
<path d="M33.0418 30.2685L19.5326 38.0685L7.4101 31.0702C0.6826 27.181 2.9576 11.9927 13.0651 11.9927" stroke="black" stroke-width="0.5" stroke-linejoin="round"/>
<path d="M26.4767 34.06L12.9675 26.26V12.2525C12.9675 4.49583 27.2675 -1.1375 32.3159 7.61583" stroke="black" stroke-width="0.5" stroke-linejoin="round"/>
</svg>
