<svg width="52" height="52" viewBox="0 0 52 52" fill="none" xmlns="http://www.w3.org/2000/svg">
<path d="M30.7612 28.1125L27.5876 4.875H27.3503C21.8099 4.88441 16.4984 7.08687 12.5771 11.0009C8.65569 14.915 6.44333 20.2223 6.42358 25.7628V26L30.7612 28.1125Z" fill="#ED6C47"/>
<path d="M27.8249 4.875H27.5876V26L38.168 30.225L48.75 26V25.7628C48.7303 20.2226 46.5181 14.9155 42.5971 11.0015C38.6761 7.08748 33.3651 4.88484 27.8249 4.875Z" fill="#FF8F6B"/>
<path d="M48.75 26V26.2324C48.7294 31.7736 46.5164 37.0814 42.5947 40.9961C38.6729 44.9109 33.3612 47.1143 27.82 47.125H27.3536C21.8126 47.1135 16.5014 44.9097 12.5798 40.9952C8.65823 37.0806 6.44504 31.7733 6.42358 26.2324V26H48.75Z" fill="#D35230"/>
<path opacity="0.1" d="M28.6455 15.2573V37.7977C28.6425 38.1812 28.5266 38.5553 28.3121 38.8733C28.0977 39.1912 27.7942 39.4388 27.4397 39.5852C27.2078 39.6811 26.9595 39.7313 26.7085 39.7331H11.4189C11.1221 39.3929 10.8396 39.0405 10.5722 38.6768C7.87735 35.0885 6.42137 30.7218 6.4236 26.2342V25.7694C6.41802 21.7214 7.60306 17.7611 9.83123 14.3814C10.0626 14.0186 10.3098 13.6662 10.5722 13.3252H26.7085C27.2203 13.3286 27.7103 13.5331 28.0727 13.8946C28.4351 14.256 28.6408 14.7455 28.6455 15.2573Z" fill="black"/>
<path opacity="0.2" d="M27.5876 16.3151V38.8555C27.5854 39.1054 27.5352 39.3525 27.4397 39.5835C27.2931 39.9376 27.0454 40.2408 26.7275 40.4549C26.4095 40.6691 26.0355 40.7848 25.6522 40.7876H12.3825C12.0477 40.4474 11.7265 40.0953 11.4189 39.7313C11.1221 39.3912 10.8396 39.0388 10.5722 38.6751C7.87734 35.0868 6.42137 30.72 6.4236 26.2325V25.7677C6.41833 21.7202 7.60336 17.7605 9.83123 14.3813H25.6506C26.1627 14.3847 26.6529 14.5895 27.0154 14.9513C27.3778 15.3131 27.5833 15.803 27.5876 16.3151Z" fill="black"/>
<path opacity="0.2" d="M27.5876 16.3151V36.743C27.5829 37.2548 27.3772 37.7443 27.0148 38.1057C26.6524 38.4672 26.1624 38.6717 25.6506 38.6751H10.5722C7.87734 35.0868 6.42137 30.72 6.4236 26.2325V25.7677C6.41833 21.7202 7.60336 17.7605 9.83123 14.3813H25.6506C26.1627 14.3847 26.6529 14.5895 27.0154 14.9513C27.3778 15.3131 27.5833 15.803 27.5876 16.3151Z" fill="black"/>
<path opacity="0.2" d="M26.5297 16.3151V36.743C26.525 37.2548 26.3193 37.7443 25.9569 38.1057C25.5945 38.4672 25.1046 38.6717 24.5927 38.6751H10.5722C7.87734 35.0868 6.42137 30.72 6.4236 26.2325V25.7677C6.41833 21.7202 7.60336 17.7605 9.83123 14.3813H24.5927C25.1048 14.3847 25.5951 14.5895 25.9575 14.9513C26.3199 15.3131 26.5255 15.803 26.5297 16.3151Z" fill="black"/>
<path d="M5.19025 14.3814H24.5895C25.1034 14.3809 25.5964 14.5845 25.9602 14.9474C26.324 15.3104 26.5289 15.8029 26.5297 16.3167V35.6835C26.5289 36.1974 26.324 36.6899 25.9602 37.0528C25.5964 37.4157 25.1034 37.6193 24.5895 37.6189H5.19025C4.93562 37.6197 4.68333 37.5703 4.44786 37.4734C4.21239 37.3765 3.99838 37.234 3.8181 37.0542C3.63783 36.8744 3.49484 36.6607 3.39735 36.4255C3.29986 36.1903 3.24979 35.9381 3.25 35.6835V16.3167C3.24979 16.0621 3.29986 15.8099 3.39735 15.5747C3.49484 15.3395 3.63783 15.1258 3.8181 14.946C3.99838 14.7662 4.21239 14.6237 4.44786 14.5268C4.68333 14.4299 4.93562 14.3805 5.19025 14.3814Z" fill="url(#paint0_linear_807_2870)"/>
<path d="M15.101 19.5453C16.3636 19.4622 17.615 19.8283 18.6338 20.5788C19.0523 20.9514 19.3805 21.4144 19.5933 21.9328C19.8062 22.4511 19.8982 23.0112 19.8623 23.5704C19.876 24.3581 19.6658 25.1335 19.2561 25.8064C18.8405 26.4678 18.243 26.9953 17.5353 27.3258C16.7261 27.7015 15.8418 27.8871 14.9499 27.8685H12.4913V32.4185H9.979V19.5453H15.101ZM12.4896 25.9023H14.6525C15.3382 25.951 16.0181 25.7482 16.5651 25.3319C16.7887 25.1187 16.9627 24.859 17.075 24.5712C17.1873 24.2835 17.2352 23.9745 17.2151 23.6663C17.2151 22.2482 16.3891 21.5386 14.737 21.5375H12.4896V25.9023Z" fill="white"/>
<defs>
<linearGradient id="paint0_linear_807_2870" x1="7.30275" y1="12.8604" x2="22.477" y2="39.1399" gradientUnits="userSpaceOnUse">
<stop stop-color="#CA4C28"/>
<stop offset="0.5" stop-color="#C5401E"/>
<stop offset="1" stop-color="#B62F14"/>
</linearGradient>
</defs>
</svg>
