<svg width="52" height="52" viewBox="0 0 52 52" fill="none" xmlns="http://www.w3.org/2000/svg">
<path fill-rule="evenodd" clip-rule="evenodd" d="M10.8333 2.1665C8.53475 2.1665 6.33035 3.0796 4.70503 4.70491C3.07972 6.33023 2.16663 8.53463 2.16663 10.8332V41.1665C2.16663 43.465 3.07972 45.6694 4.70503 47.2948C6.33035 48.9201 8.53475 49.8332 10.8333 49.8332H41.1666C43.4652 49.8332 45.6696 48.9201 47.2949 47.2948C48.9202 45.6694 49.8333 43.465 49.8333 41.1665V10.8332C49.8333 8.53463 48.9202 6.33023 47.2949 4.70491C45.6696 3.0796 43.4652 2.1665 41.1666 2.1665H10.8333ZM10.1096 9.74984C9.87244 9.83798 9.65912 9.9803 9.48666 10.1654C9.31419 10.3506 9.18734 10.5735 9.11622 10.8163C9.04509 11.0591 9.03166 11.3152 9.07698 11.5641C9.12231 11.8131 9.22514 12.048 9.37729 12.2502L21.541 28.3918L8.72513 42.1393L8.62979 42.2498H13.065L23.53 31.0287L31.5726 41.706C31.7592 41.9532 32.0126 42.1418 32.3028 42.2498H41.8838C42.1206 42.1612 42.3335 42.0186 42.5055 41.8332C42.6775 41.6479 42.8039 41.4249 42.8745 41.1822C42.9452 40.9394 42.9583 40.6835 42.9127 40.4347C42.8671 40.186 42.764 39.9514 42.6118 39.7495L30.4481 23.6078L43.3701 9.74984H38.9285L28.4635 20.9732L20.4165 10.2958C20.2302 10.0479 19.9768 9.85843 19.6863 9.74984H10.1096ZM33.683 39.1038L13.9338 12.8958H18.3083L38.0553 39.1017L33.683 39.1038Z" fill="black"/>
</svg>
